<svg width="52" height="52" viewBox="0 0 52 52" fill="none" xmlns="http://www.w3.org/2000/svg">
<path d="M42.4667 45.5L28.8167 31.85C27.7333 32.7167 26.4875 33.4028 25.0792 33.9083C23.6708 34.4139 22.1722 34.6667 20.5833 34.6667C16.6472 34.6667 13.316 33.3035 10.5896 30.5771C7.86319 27.8507 6.5 24.5194 6.5 20.5833C6.5 16.6472 7.86319 13.316 10.5896 10.5896C13.316 7.86319 16.6472 6.5 20.5833 6.5C24.5194 6.5 27.8507 7.86319 30.5771 10.5896C33.3035 13.316 34.6667 16.6472 34.6667 20.5833C34.6667 22.1722 34.4139 23.6708 33.9083 25.0792C33.4028 26.4875 32.7167 27.7333 31.85 28.8167L45.5 42.4667L42.4667 45.5ZM20.5833 30.3333C23.2917 30.3333 25.5938 29.3854 27.4896 27.4896C29.3854 25.5938 30.3333 23.2917 30.3333 20.5833C30.3333 17.875 29.3854 15.5729 27.4896 13.6771C25.5938 11.7813 23.2917 10.8333 20.5833 10.8333C17.875 10.8333 15.5729 11.7813 13.6771 13.6771C11.7813 15.5729 10.8333 17.875 10.8333 20.5833C10.8333 23.2917 11.7813 25.5938 13.6771 27.4896C15.5729 29.3854 17.875 30.3333 20.5833 30.3333Z" fill="#5AB5FF"/>
</svg>
