<svg width="30" height="34" viewBox="0 0 30 34" fill="none" xmlns="http://www.w3.org/2000/svg">
<path d="M27.75 8.50001H24.9167M24.9167 8.50001H2.25M24.9167 8.50001V28.3333C24.9167 29.0848 24.6182 29.8055 24.0868 30.3368C23.5554 30.8682 22.8348 31.1667 22.0833 31.1667H7.91667C7.16522 31.1667 6.44455 30.8682 5.9132 30.3368C5.38185 29.8055 5.08333 29.0848 5.08333 28.3333V8.50001M20.6667 8.50001V5.66668C20.6667 4.91523 20.3682 4.19456 19.8368 3.66321C19.3054 3.13185 18.5848 2.83334 17.8333 2.83334H12.1667C11.4152 2.83334 10.6946 3.13185 10.1632 3.66321C9.63185 4.19456 9.33333 4.91523 9.33333 5.66668V8.50001M17.8333 15.5833V24.0833M12.1667 15.5833V24.0833" stroke="white" stroke-width="4" stroke-linecap="round" stroke-linejoin="round"/>
</svg>
